<svg width="46" height="46" viewBox="0 0 46 46" fill="none" xmlns="http://www.w3.org/2000/svg">
<path d="M29.9632 2.875C27.6057 2.875 25.2233 4.09975 23.6287 5.97425V6.02025C22.494 7.429 21.2654 9.65233 21.6526 12.2188C21.4667 12.1459 21.4552 12.1689 21.2482 12.0846C20.2534 11.6802 19.0248 11.2298 17.5643 11.2298C11.8431 11.2298 7.50183 16.4124 7.50183 23.2242C7.50183 27.6326 8.98341 31.7649 10.9614 34.8584C11.9485 36.4109 13.0717 37.6836 14.2389 38.6342C15.4081 39.5811 16.6328 40.25 18.0147 40.25C19.3947 40.25 20.4297 39.7842 21.2041 39.4412C21.9784 39.0981 22.5783 38.8125 23.7187 38.8125C24.7461 38.8125 25.2693 39.0923 26.0552 39.4412C26.841 39.79 27.9143 40.25 29.3327 40.25C30.8717 40.25 32.1808 39.4967 33.2427 38.5442C34.3026 37.5877 35.1977 36.3592 35.9375 35.1747C36.6792 33.9882 37.2619 32.8268 37.6893 31.8953C37.9021 31.4295 38.0592 31.0404 38.1838 30.7261C38.3065 30.4117 38.3697 30.3236 38.4522 29.9632L38.7224 28.7941L37.6453 28.3015C36.8435 27.921 36.1139 27.4041 35.489 26.7739C34.5882 25.8577 33.8253 24.6062 33.8253 22.6857C33.8253 20.8265 34.5383 19.5807 35.3088 18.6875C35.6922 18.2448 36.0889 17.8787 36.386 17.6525C36.5393 17.5413 36.6562 17.4857 36.7463 17.4302C36.8364 17.3727 36.8192 17.3918 36.9706 17.296L38.1838 16.5312L37.375 15.318C35.0271 11.707 31.2704 11.2298 29.785 11.2298C29.0931 11.2298 28.6043 11.4712 27.9872 11.5901C28.3341 11.2642 28.7845 11.0611 29.0643 10.6912C29.0701 10.6854 29.0586 10.6528 29.0643 10.6471C29.0816 10.6279 29.0988 10.6183 29.1103 10.6011H29.1544C30.7176 8.85578 31.5253 6.56209 31.4007 4.22242L31.3107 2.875H29.9632ZM28.2574 6.1985C28.0082 7.14725 27.6057 8.05192 26.9541 8.75917L26.864 8.84925C26.3139 9.591 25.4648 10.1411 24.6177 10.4669C24.8534 9.52775 25.2636 8.58092 25.8309 7.86025C25.8405 7.84492 25.8635 7.83342 25.875 7.81617C26.5037 7.09742 27.3738 6.55883 28.2555 6.1985H28.2574ZM17.5624 14.1067C18.3655 14.1067 19.2472 14.4114 20.1691 14.7813C21.0891 15.1512 21.9477 15.6342 23.1782 15.6342C24.4011 15.6342 25.3287 15.1512 26.4117 14.7813C27.4965 14.4114 28.6542 14.1067 29.7812 14.1067C30.5344 14.1067 32.3917 14.5858 33.9595 16.0387C33.6835 16.2878 33.442 16.4661 33.1507 16.8034C31.7279 18.4332 30.9453 20.5242 30.9484 22.6876C30.9484 25.4284 32.1463 27.4888 33.4209 28.796C34.2125 29.6048 34.7012 29.7965 35.3069 30.1453C35.2283 30.3236 35.1823 30.4654 35.0827 30.682C34.6936 31.5253 34.1627 32.6044 33.511 33.649C32.8593 34.6936 32.0658 35.7094 31.3068 36.3898C30.5497 37.0683 29.8693 37.3769 29.3327 37.3769C28.5181 37.3769 28.0408 37.1527 27.2205 36.7923C26.4002 36.4339 25.2732 35.9394 23.7168 35.9394C22.0838 35.9394 20.8763 36.4224 20.033 36.7923C19.1897 37.1642 18.7527 37.3769 18.0109 37.3769C17.6582 37.3769 16.8935 37.0894 16.0367 36.3879C15.1742 35.6864 14.2332 34.6188 13.3841 33.2887C11.684 30.6264 10.3749 26.9713 10.3749 23.2262C10.3749 17.5605 13.5374 14.1067 17.5624 14.1067Z" fill="white"/>
</svg>
