<svg width="46" height="46" viewBox="0 0 46 46" fill="none" xmlns="http://www.w3.org/2000/svg">
<path d="M17.9375 10C10.7883 10 5 15.7883 5 22.9375C5 30.0867 10.7883 35.875 17.9375 35.875C25.0867 35.875 30.875 30.0867 30.875 22.9375C30.875 22.0501 30.7792 21.1857 30.6067 20.35L30.5377 20.0625H17.9375V24.375H26.5625C25.8783 28.4518 22.2117 31.5625 17.9375 31.5625C15.6815 31.5149 13.5339 30.5854 11.9552 28.973C10.3765 27.3607 9.49242 25.194 9.49242 22.9375C9.49242 20.681 10.3765 18.5143 11.9552 16.902C13.5339 15.2897 15.6815 14.3601 17.9375 14.3125C20.0938 14.3125 22.0583 15.1098 23.5744 16.4189L26.6641 13.3906C24.2833 11.2061 21.1686 9.99596 17.9375 10Z" fill="white"/>
</svg>
