<svg width="25" height="28" viewBox="0 0 25 28" fill="none" xmlns="http://www.w3.org/2000/svg">
<path d="M24.6047 25.0376L18.9406 18.9418C20.3045 16.9875 21.0407 14.6087 21.038 12.1646C21.038 5.92222 16.3192 0.84375 10.519 0.84375C4.71878 0.84375 0 5.92222 0 12.1646C0 18.4069 4.71878 23.4854 10.519 23.4854C12.7896 23.488 14.9994 22.6957 16.815 21.2281L22.4791 27.3239C22.7647 27.606 23.1405 27.7585 23.528 27.7496C23.9156 27.7408 24.285 27.5712 24.5592 27.2763C24.8334 26.9813 24.9912 26.5839 24.9996 26.1668C25.0081 25.7497 24.8666 25.3452 24.6047 25.0376ZM3.00543 12.1646C3.00543 10.5652 3.44609 9.00184 4.2717 7.67205C5.0973 6.34227 6.27076 5.30583 7.64369 4.6938C9.01661 4.08177 10.5273 3.92163 11.9848 4.23364C13.4423 4.54565 14.7811 5.3158 15.8319 6.44668C16.8827 7.57757 17.5983 9.01841 17.8882 10.587C18.1781 12.1556 18.0293 13.7815 17.4606 15.259C16.892 16.7366 15.9289 17.9995 14.6933 18.8881C13.4577 19.7766 12.0051 20.2508 10.519 20.2508C8.52701 20.2483 6.61729 19.3955 5.20873 17.8796C3.80018 16.3637 3.00781 14.3084 3.00543 12.1646Z" fill="white"/>
</svg>
